<svg version="1.1" id="Layer_1" xmlns="http://www.w3.org/2000/svg" xmlns:xlink="http://www.w3.org/1999/xlink" x="0px" y="0px"
	 width="100%" viewBox="0 0 474 106" enable-background="new 0 0 474 106" xml:space="preserve">
<path fill="#FDFDFE" opacity="1.000000" stroke="none" 
	d="
M352.000000,107.000000 
	C234.666687,107.000000 117.833359,107.000000 1.000031,107.000000 
	C1.000021,71.666687 1.000021,36.333370 1.000010,1.000041 
	C158.999954,1.000027 316.999908,1.000027 474.999908,1.000014 
	C474.999939,36.333294 474.999939,71.666588 474.999969,106.999939 
	C434.166656,107.000000 393.333344,107.000000 352.000000,107.000000 
M403.861115,91.714577 
	C403.919891,82.146103 403.978668,72.577629 404.717377,63.087418 
	C412.940430,72.420319 421.163452,81.753220 429.984497,91.801857 
	C431.574066,91.928558 433.163635,92.055260 435.004517,92.201996 
	C435.004517,78.979401 435.004517,66.152534 435.004517,53.108982 
	C433.541870,53.108982 432.270172,53.108982 430.147949,53.341026 
	C430.091125,62.892540 430.034332,72.444054 429.269958,82.019531 
	C428.656128,81.525421 427.950562,81.110931 427.442139,80.525276 
	C419.747009,71.661392 412.077759,62.775036 404.106354,53.366074 
	C403.741760,53.262123 403.377197,53.158176 402.266266,52.886448 
	C401.507660,52.942261 400.749084,52.998074 399.355438,53.015827 
	C399.193939,53.356400 399.032440,53.696976 398.637024,54.945789 
	C398.714905,66.956184 398.792816,78.966576 399.047089,91.769623 
	C400.367279,91.834427 401.687439,91.899231 403.861115,91.714577 
M244.141281,53.323971 
	C244.078140,65.585640 243.999893,77.847305 243.996033,90.109001 
	C243.995834,90.727882 244.638046,91.346962 245.841522,92.137558 
	C248.744308,92.236404 249.463791,90.554123 249.408966,88.004662 
	C249.320801,83.904816 249.385300,79.801682 249.385300,75.263153 
	C256.066925,75.263153 262.029083,75.323105 267.989532,75.247253 
	C274.723541,75.161560 279.124115,72.168251 280.115326,67.162712 
	C281.477783,60.282669 279.159271,56.333893 271.506317,53.047653 
	C271.506317,53.047653 271.029602,53.134377 270.106781,52.943527 
	C264.398102,52.986279 258.689453,53.029034 252.102707,52.931248 
	C249.731445,52.980537 247.360184,53.029827 244.141281,53.323971 
M305.916595,75.189003 
	C311.846283,75.189003 317.775970,75.189003 323.818695,75.189003 
	C323.818695,73.258232 323.818695,71.715736 323.818695,69.895332 
	C319.426392,69.895332 315.298157,69.765167 311.182587,69.937569 
	C308.033691,70.069481 304.900848,70.583855 301.504730,71.409760 
	C301.597717,72.291634 301.690735,73.173508 301.829987,74.710732 
	C302.225952,74.823792 302.621918,74.936852 303.665039,75.266129 
	C304.106476,75.188225 304.547943,75.110329 305.916595,75.189003 
M104.664169,75.250038 
	C105.106400,75.177742 105.548637,75.105453 106.915489,75.207909 
	C115.617645,75.158905 124.319801,75.109894 133.585617,75.670380 
	C133.753067,80.783653 133.920517,85.896935 134.225159,91.793655 
	C135.843094,91.525215 137.461014,91.256775 139.296646,90.073738 
	C139.224579,78.053162 139.152496,66.032578 138.807236,53.180622 
	C137.269913,53.109253 135.732590,53.037880 134.026627,52.958679 
	C134.026627,58.622395 134.026627,63.806202 133.719208,69.373497 
	C133.497253,69.616142 133.253708,69.834747 132.058929,69.915482 
	C124.376579,69.952667 116.694221,69.989853 108.378548,69.462006 
	C107.981216,64.288261 107.583885,59.114513 106.837242,53.248089 
	C105.529289,53.503052 104.221344,53.758015 102.695099,54.926788 
	C102.767868,61.277370 102.840637,67.627953 102.884651,74.632896 
	C103.260895,74.772087 103.637131,74.911270 104.664169,75.250038 
M323.811279,56.778866 
	C323.603882,55.833588 323.396484,54.888309 322.727478,53.176548 
	C312.314850,53.095871 301.902283,53.002281 291.489532,52.979156 
	C291.048340,52.978176 290.605713,53.631023 290.017670,54.909065 
	C290.066803,66.946999 290.115936,78.984924 290.376038,91.874908 
	C300.652344,91.961327 310.928589,92.067909 321.205017,92.087219 
	C321.865234,92.088463 322.526672,91.415222 323.797424,90.794067 
	C323.619965,89.836395 323.442505,88.878723 322.800110,87.141068 
	C313.878632,87.035889 304.957153,86.930702 295.936523,85.914307 
	C295.936523,76.877769 295.936523,67.841232 295.936523,58.074867 
	C304.900360,58.074867 313.441162,58.074867 322.602814,58.113953 
	C322.803070,57.760807 323.003296,57.407665 323.811279,56.778866 
M224.502640,53.008808 
	C224.502640,53.008808 224.021408,53.104969 223.101196,52.909012 
	C217.728806,52.961143 212.356400,53.013279 206.086014,52.922092 
	C203.330963,52.922092 200.575897,52.922092 197.700775,52.922092 
	C197.700775,66.212898 197.700775,78.941963 197.700775,92.455933 
	C199.397491,91.924324 200.784256,91.489830 202.893005,90.574745 
	C202.893005,85.643433 202.893005,80.712128 202.893005,76.341812 
	C203.681747,75.685501 203.808029,75.488136 203.937088,75.486290 
	C210.068192,75.398750 216.201126,75.391640 222.330429,75.238518 
	C229.000000,75.071899 233.209717,71.714622 234.040436,66.082672 
	C235.006989,59.529705 232.043274,55.303555 224.502640,53.008808 
M157.069122,86.112724 
	C160.748093,78.368813 164.427078,70.624901 168.394684,62.273483 
	C173.079895,71.729851 177.531097,80.433693 181.701004,89.270271 
	C183.332382,92.727364 185.431808,92.754326 188.981567,91.101372 
	C182.149857,77.194412 175.434158,63.523628 168.393860,49.192081 
	C161.442932,63.592709 154.823090,77.307419 148.345840,91.889809 
	C157.232513,91.889809 166.119186,91.889809 175.160919,91.889809 
	C175.160919,90.183060 175.160919,88.629539 175.160919,86.824745 
	C168.930313,86.824745 162.984100,86.824745 157.069122,86.112724 
M77.833549,58.750080 
	C86.731148,48.494030 86.489235,35.106030 76.948105,25.924614 
	C71.363800,20.434160 65.779495,14.943707 59.925823,8.874500 
	C55.169754,4.636161 49.843895,3.518176 43.333073,3.545442 
	C36.849987,3.572592 31.964277,5.177671 27.102879,9.964663 
	C21.504354,15.618380 15.905828,21.272097 9.707169,27.339745 
	C1.418957,37.704422 1.882173,50.428303 11.141042,59.724148 
	C16.400595,65.172600 21.660149,70.621048 28.175177,77.370056 
	C33.863255,71.023163 38.932774,65.366463 44.595257,60.069855 
	C49.744781,65.407639 54.894302,70.745422 59.444576,75.462044 
	C65.664345,69.723770 71.452484,64.383713 77.833549,58.750080 
M366.160095,53.340080 
	C366.127960,62.895496 366.095856,72.450912 365.366974,82.246323 
	C356.891235,72.565407 348.415497,62.884483 339.066040,52.944122 
	C337.786743,52.944122 336.507446,52.944122 335.172333,52.944122 
	C335.172333,66.188622 335.172333,79.066345 335.172333,92.201393 
	C337.043640,92.088867 338.596191,91.995499 340.106750,91.904663 
	C340.106750,81.962624 340.106750,72.491699 340.788422,63.074482 
	C348.304138,71.659805 355.918243,80.162048 363.277374,88.879547 
	C365.572784,91.598694 367.883026,93.018143 371.608093,91.757950 
	C371.608093,78.950218 371.608093,66.059853 371.608093,53.038239 
	C369.932373,53.038239 368.458893,53.038239 366.160095,53.340080 
M51.031212,73.457542 
	C49.019810,70.854927 47.008408,68.252304 45.505943,66.308220 
	C39.948170,71.697540 35.722954,75.794693 32.241592,79.170532 
	C36.168613,83.398529 40.196411,87.735023 44.079670,91.915901 
	C48.349110,87.708435 52.567348,83.551414 56.981888,79.200958 
	C55.117062,77.421326 53.313278,75.699944 51.031212,73.457542 
M387.985657,57.725048 
	C387.900848,56.162678 387.816010,54.600307 387.715302,52.744938 
	C385.591522,53.213486 383.935242,53.578899 382.419495,53.913300 
	C382.419495,66.539207 382.419495,79.131599 382.419495,91.867493 
	C384.363800,91.867493 386.059235,91.867493 387.985657,91.867493 
	C387.985657,80.585670 387.985657,69.631874 387.985657,57.725048 
M102.868683,81.713783 
	C102.807869,84.179993 102.417053,86.703278 102.829353,89.087677 
	C103.027237,90.232101 104.743393,91.113983 105.771965,92.114761 
	C106.551979,91.053787 107.850990,90.063011 108.005920,88.917488 
	C108.347450,86.392372 108.112015,83.789207 108.112015,81.106216 
	C106.178787,81.106216 104.882210,81.106216 102.868683,81.713783 
z"/>
<path fill="#F04024" opacity="1.000000" stroke="none" 
	d="
M10.307302,26.925814 
	C15.905828,21.272097 21.504354,15.618380 27.592110,10.130256 
	C33.405361,15.704593 38.729382,21.113335 43.729637,26.686979 
	C38.096237,32.064713 32.786606,37.277546 27.410019,42.483967 
	C27.343063,42.477551 27.221556,42.419827 26.931536,42.201263 
	C21.196777,36.963737 15.752040,31.944775 10.307302,26.925814 
z"/>
<path fill="#FCAB16" opacity="1.000000" stroke="none" 
	d="
M60.195190,9.453256 
	C65.779495,14.943707 71.363800,20.434160 76.821968,26.464115 
	C71.346718,32.320938 65.997604,37.638256 60.627556,42.895645 
	C60.606621,42.835716 60.481194,42.816086 60.290665,42.524284 
	C55.064041,37.140850 50.027946,32.049221 45.030605,26.615475 
	C46.301197,24.758085 47.462742,23.178543 48.778206,21.739719 
	C52.550468,17.613695 56.385086,13.544682 60.195190,9.453256 
z"/>
<path fill="#412E89" opacity="1.000000" stroke="none" 
	d="
M339.939758,53.203560 
	C348.415497,62.884483 356.891235,72.565407 366.007751,81.827766 
	C366.760834,71.952217 366.873138,62.495228 366.985413,53.038239 
	C368.458893,53.038239 369.932373,53.038239 371.608093,53.038239 
	C371.608093,66.059853 371.608093,78.950218 371.608093,91.757950 
	C367.883026,93.018143 365.572784,91.598694 363.277374,88.879547 
	C355.918243,80.162048 348.304138,71.659805 340.122894,63.314423 
	C339.180237,72.629089 338.903076,81.703804 338.625946,90.778526 
	C337.989594,90.810043 337.353210,90.841560 336.716858,90.873077 
	C336.481079,89.293961 336.052948,87.716248 336.041382,86.135498 
	C335.975708,77.154274 336.202881,68.166008 335.909607,59.193890 
	C335.800018,55.840885 336.738525,53.957794 339.939758,53.203560 
z"/>
<path fill="#6950A4" opacity="1.000000" stroke="none" 
	d="
M27.221556,42.419827 
	C27.221556,42.419827 27.343063,42.477551 27.590269,42.758339 
	C33.226833,48.450188 38.616196,53.861252 44.014790,59.381752 
	C44.024025,59.491188 44.002289,59.709763 44.002289,59.709763 
	C38.932774,65.366463 33.863255,71.023163 28.175177,77.370056 
	C21.660149,70.621048 16.400595,65.172600 11.284966,59.224937 
	C16.693113,53.290428 21.957335,47.855125 27.221556,42.419827 
z"/>
<path fill="#08A2C5" opacity="1.000000" stroke="none" 
	d="
M44.298775,59.889809 
	C44.002289,59.709763 44.024025,59.491188 44.303772,59.192257 
	C49.882744,53.534248 55.181969,48.175167 60.481194,42.816086 
	C60.481194,42.816086 60.606621,42.835716 60.874565,43.150352 
	C66.508545,48.657871 71.874588,53.850761 77.240623,59.043648 
	C71.452484,64.383713 65.664345,69.723770 59.444576,75.462044 
	C54.894302,70.745422 49.744781,65.407639 44.298775,59.889809 
z"/>
<path fill="#3F2B88" opacity="1.000000" stroke="none" 
	d="
M148.203247,91.022141 
	C154.823090,77.307419 161.442932,63.592709 168.393860,49.192081 
	C175.434158,63.523628 182.149857,77.194412 188.981567,91.101372 
	C185.431808,92.754326 183.332382,92.727364 181.701004,89.270271 
	C177.531097,80.433693 173.079895,71.729851 168.394684,62.273483 
	C164.427078,70.624901 160.748093,78.368813 157.303375,86.807907 
	C160.331619,87.671051 163.125900,87.834015 165.919479,88.008423 
	C168.550156,88.172661 171.180069,88.348961 173.810318,88.519951 
	C173.769806,89.354012 173.729279,90.188080 173.688751,91.022141 
	C165.193588,91.022141 156.698410,91.022141 148.203247,91.022141 
z"/>
<path fill="#3E2B88" opacity="1.000000" stroke="none" 
	d="
M429.386505,91.086121 
	C421.163452,81.753220 412.940430,72.420319 404.066345,63.328850 
	C403.262268,72.698669 403.109222,81.827049 402.549438,90.970421 
	C401.052002,90.982597 399.961365,90.979782 398.870697,90.976974 
	C398.792816,78.966576 398.714905,66.956184 398.993927,54.393433 
	C399.564056,53.578678 399.777252,53.316280 399.990479,53.053883 
	C400.749084,52.998074 401.507660,52.942261 402.801880,53.204006 
	C403.692474,53.645695 404.047455,53.769825 404.402435,53.893951 
	C412.077759,62.775036 419.747009,71.661392 427.442139,80.525276 
	C427.950562,81.110931 428.656128,81.525421 429.930298,81.722229 
	C430.730591,72.290482 430.870575,63.156048 431.425629,54.032631 
	C432.559998,55.437412 433.874969,56.819576 433.902374,58.226814 
	C434.086884,67.704269 433.837769,77.191124 434.078400,86.666061 
	C434.172363,90.366600 432.600983,91.364204 429.386505,91.086121 
z"/>
<path fill="#3E2A87" opacity="1.000000" stroke="none" 
	d="
M252.980774,53.071785 
	C258.689453,53.029034 264.398102,52.986279 270.639221,53.186577 
	C271.171631,53.429626 271.587708,53.559811 271.587708,53.559811 
	C271.587708,53.559811 271.946594,53.250027 271.946594,53.250027 
	C279.159271,56.333893 281.477783,60.282669 280.115326,67.162712 
	C279.124115,72.168251 274.723541,75.161560 267.989532,75.247253 
	C262.029083,75.323105 256.066925,75.263153 249.385300,75.263153 
	C249.385300,79.801682 249.320801,83.904816 249.408966,88.004662 
	C249.463791,90.554123 248.744308,92.236404 245.422333,91.585388 
	C245.018448,78.705338 245.033752,66.377457 245.471588,54.033363 
	C248.256317,53.702030 250.618546,53.386909 252.980774,53.071785 
M253.821411,70.919586 
	C259.040955,70.577904 264.273651,70.367523 269.475342,69.847343 
	C272.817688,69.513092 275.012665,67.583374 274.979980,63.994045 
	C274.946655,60.335033 272.519470,58.505466 269.256256,58.376469 
	C262.852692,58.123337 256.432098,58.302032 249.414139,58.302032 
	C249.414139,61.975746 249.153320,65.262306 249.574249,68.459114 
	C249.699295,69.408707 251.740372,70.106018 253.821411,70.919586 
z"/>
<path fill="#3D2A87" opacity="1.000000" stroke="none" 
	d="
M206.984009,53.065414 
	C212.356400,53.013279 217.728806,52.961143 223.642151,53.161423 
	C224.446106,53.326412 224.709137,53.238991 224.972153,53.151566 
	C232.043274,55.303555 235.006989,59.529705 234.040436,66.082672 
	C233.209717,71.714622 229.000000,75.071899 222.330429,75.238518 
	C216.201126,75.391640 210.068192,75.398750 203.937088,75.486290 
	C203.808029,75.488136 203.681747,75.685501 202.893005,76.341812 
	C202.893005,80.712128 202.893005,85.643433 202.106155,90.783005 
	C200.546219,89.640938 199.143753,88.308640 199.104492,86.937317 
	C198.886505,79.322113 198.999512,71.697441 198.999405,64.076004 
	C198.999283,55.433575 198.999725,55.434834 206.626511,53.403561 
	C206.765808,53.366459 206.865707,53.181423 206.984009,53.065414 
M221.905518,58.273895 
	C215.785187,58.273895 209.664871,58.273895 203.344360,58.273895 
	C203.344360,62.688343 203.344360,66.580627 203.344360,71.349632 
	C209.725525,70.862556 215.745834,70.267395 221.780716,69.991150 
	C225.658020,69.813675 228.489319,68.245499 228.757828,64.360291 
	C229.016235,60.621216 226.293701,58.820225 221.905518,58.273895 
z"/>
<path fill="#3FC4D5" opacity="1.000000" stroke="none" 
	d="
M77.537086,58.896866 
	C71.874588,53.850761 66.508545,48.657871 60.895500,43.210281 
	C65.997604,37.638256 71.346718,32.320938 76.973251,26.747797 
	C86.489235,35.106030 86.731148,48.494030 77.537086,58.896866 
z"/>
<path fill="#EE1861" opacity="1.000000" stroke="none" 
	d="
M26.931536,42.201263 
	C21.957335,47.855125 16.693113,53.290428 11.146395,58.919609 
	C1.882173,50.428303 1.418957,37.704422 10.007235,27.132778 
	C15.752040,31.944775 21.196777,36.963737 26.931536,42.201263 
z"/>
<path fill="#FCC934" opacity="1.000000" stroke="none" 
	d="
M60.060509,9.163878 
	C56.385086,13.544682 52.550468,17.613695 48.778206,21.739719 
	C47.462742,23.178543 46.301197,24.758085 44.782951,26.535057 
	C44.348827,26.705193 44.201115,26.613636 44.053402,26.522079 
	C38.729382,21.113335 33.405361,15.704593 27.892872,9.984404 
	C31.964277,5.177671 36.849987,3.572592 43.333073,3.545442 
	C49.843895,3.518176 55.169754,4.636161 60.060509,9.163878 
z"/>
<path fill="#3F2C87" opacity="1.000000" stroke="none" 
	d="
M321.981964,58.074867 
	C313.441162,58.074867 304.900360,58.074867 295.936523,58.074867 
	C295.936523,67.841232 295.936523,76.877769 296.236786,86.709122 
	C305.446381,87.642975 314.355743,87.782013 323.265076,87.921051 
	C323.442505,88.878723 323.619965,89.836395 323.011841,90.906525 
	C311.539215,91.020271 300.852112,91.021568 290.165039,91.022858 
	C290.115936,78.984924 290.066803,66.946999 290.548676,54.452293 
	C301.782806,53.978024 312.485931,53.960526 323.189056,53.943031 
	C323.396484,54.888309 323.603882,55.833588 323.246887,57.011520 
	C322.448975,57.521069 322.215485,57.797966 321.981964,58.074867 
z"/>
<path fill="#3C2986" opacity="1.000000" stroke="none" 
	d="
M102.913406,73.978539 
	C102.840637,67.627953 102.767868,61.277370 103.231796,54.471474 
	C104.907845,53.991028 106.047195,53.965897 107.186546,53.940765 
	C107.583885,59.114513 107.981216,64.288261 108.987610,70.041550 
	C117.393982,70.423843 125.191292,70.226578 132.988602,70.029320 
	C133.253708,69.834747 133.497253,69.616142 134.166916,68.888290 
	C134.744095,64.998383 135.079727,61.585342 134.942596,58.191406 
	C134.816101,55.060253 135.785431,53.514599 139.080429,54.012001 
	C139.152496,66.032578 139.224579,78.053162 138.770599,90.529358 
	C136.859009,90.993385 135.473495,91.001801 134.087952,91.010208 
	C133.920517,85.896935 133.753067,80.783653 133.018219,75.055580 
	C126.670830,74.293755 120.889679,74.008301 115.111282,74.056122 
	C112.068657,74.081306 109.030853,74.688675 105.990868,75.033157 
	C105.548637,75.105453 105.106400,75.177742 104.225189,74.908463 
	C103.495277,74.370773 103.204346,74.174660 102.913406,73.978539 
z"/>
<path fill="#3C2986" opacity="1.000000" stroke="none" 
	d="
M51.270351,73.718048 
	C53.313278,75.699944 55.117062,77.421326 56.981888,79.200958 
	C52.567348,83.551414 48.349110,87.708435 44.079670,91.915901 
	C40.196411,87.735023 36.168613,83.398529 32.241592,79.170532 
	C35.722954,75.794693 39.948170,71.697540 45.505943,66.308220 
	C47.008408,68.252304 49.019810,70.854927 51.270351,73.718048 
z"/>
<path fill="#47368C" opacity="1.000000" stroke="none" 
	d="
M387.985657,58.201561 
	C387.985657,69.631874 387.985657,80.585670 387.985657,91.867493 
	C386.059235,91.867493 384.363800,91.867493 382.419495,91.867493 
	C382.419495,79.131599 382.419495,66.539207 382.419495,53.913300 
	C383.935242,53.578899 385.591522,53.213486 387.715302,52.744938 
	C387.816010,54.600307 387.900848,56.162678 387.985657,58.201561 
z"/>
<path fill="#301681" opacity="1.000000" stroke="none" 
	d="
M206.535004,52.993752 
	C206.865707,53.181423 206.765808,53.366459 206.626511,53.403561 
	C198.999725,55.434834 198.999283,55.433575 198.999405,64.076004 
	C198.999512,71.697441 198.886505,79.322113 199.104492,86.937317 
	C199.143753,88.308640 200.546219,89.640938 201.745163,91.023300 
	C200.784256,91.489830 199.397491,91.924324 197.700775,92.455933 
	C197.700775,78.941963 197.700775,66.212898 197.700775,52.922092 
	C200.575897,52.922092 203.330963,52.922092 206.535004,52.993752 
z"/>
<path fill="#290E7F" opacity="1.000000" stroke="none" 
	d="
M339.502899,53.073841 
	C336.738525,53.957794 335.800018,55.840885 335.909607,59.193890 
	C336.202881,68.166008 335.975708,77.154274 336.041382,86.135498 
	C336.052948,87.716248 336.481079,89.293961 336.716858,90.873077 
	C337.353210,90.841560 337.989594,90.810043 338.625946,90.778526 
	C338.903076,81.703804 339.180237,72.629089 339.782043,63.287567 
	C340.106750,72.491699 340.106750,81.962624 340.106750,91.904663 
	C338.596191,91.995499 337.043640,92.088867 335.172333,92.201393 
	C335.172333,79.066345 335.172333,66.188622 335.172333,52.944122 
	C336.507446,52.944122 337.786743,52.944122 339.502899,53.073841 
z"/>
<path fill="#42308A" opacity="1.000000" stroke="none" 
	d="
M301.783722,74.055382 
	C301.690735,73.173508 301.597717,72.291634 302.115845,71.208755 
	C309.431061,71.027466 316.135132,71.047180 322.839233,71.066902 
	C322.861816,71.828613 322.884399,72.590324 322.906982,73.352036 
	C321.283142,73.568214 319.664673,73.846344 318.034393,73.988594 
	C313.688751,74.367767 309.338074,74.688484 304.989380,75.032433 
	C304.547943,75.110329 304.106476,75.188225 303.213898,74.910263 
	C302.436401,74.388062 302.110077,74.221718 301.783722,74.055382 
z"/>
<path fill="#2F1281" opacity="1.000000" stroke="none" 
	d="
M148.274536,91.455978 
	C156.698410,91.022141 165.193588,91.022141 173.688751,91.022141 
	C173.729279,90.188080 173.769806,89.354012 173.810318,88.519951 
	C171.180069,88.348961 168.550156,88.172661 165.919479,88.008423 
	C163.125900,87.834015 160.331619,87.671051 157.287766,87.163918 
	C162.984100,86.824745 168.930313,86.824745 175.160919,86.824745 
	C175.160919,88.629539 175.160919,90.183060 175.160919,91.889809 
	C166.119186,91.889809 157.232513,91.889809 148.274536,91.455978 
z"/>
<path fill="#3D2A87" opacity="1.000000" stroke="none" 
	d="
M103.227158,81.410004 
	C104.882210,81.106216 106.178787,81.106216 108.112015,81.106216 
	C108.112015,83.789207 108.347450,86.392372 108.005920,88.917488 
	C107.850990,90.063011 106.551979,91.053787 105.771965,92.114761 
	C104.743393,91.113983 103.027237,90.232101 102.829353,89.087677 
	C102.417053,86.703278 102.807869,84.179993 103.227158,81.410004 
z"/>
<path fill="#2B107F" opacity="1.000000" stroke="none" 
	d="
M429.685486,91.443985 
	C432.600983,91.364204 434.172363,90.366600 434.078400,86.666061 
	C433.837769,77.191124 434.086884,67.704269 433.902374,58.226814 
	C433.874969,56.819576 432.559998,55.437412 431.421448,53.804363 
	C431.002197,53.565075 430.998505,53.108982 430.998505,53.108982 
	C432.270172,53.108982 433.541870,53.108982 435.004517,53.108982 
	C435.004517,66.152534 435.004517,78.979401 435.004517,92.201996 
	C433.163635,92.055260 431.574066,91.928558 429.685486,91.443985 
z"/>
<path fill="#270A7E" opacity="1.000000" stroke="none" 
	d="
M305.453003,75.110718 
	C309.338074,74.688484 313.688751,74.367767 318.034393,73.988594 
	C319.664673,73.846344 321.283142,73.568214 322.906982,73.352036 
	C322.884399,72.590324 322.861816,71.828613 322.839233,71.066902 
	C316.135132,71.047180 309.431061,71.027466 302.243896,70.967941 
	C304.900848,70.583855 308.033691,70.069481 311.182587,69.937569 
	C315.298157,69.765167 319.426392,69.895332 323.818695,69.895332 
	C323.818695,71.715736 323.818695,73.258232 323.818695,75.189003 
	C317.775970,75.189003 311.846283,75.189003 305.453003,75.110718 
z"/>
<path fill="#23007D" opacity="1.000000" stroke="none" 
	d="
M245.049072,54.049568 
	C245.033752,66.377457 245.018448,78.705338 244.992142,91.499588 
	C244.638046,91.346962 243.995834,90.727882 243.996033,90.109001 
	C243.999893,77.847305 244.078140,65.585640 244.578186,53.444283 
	C245.015091,53.564594 245.049072,54.049568 245.049072,54.049568 
z"/>
<path fill="#2B0F7F" opacity="1.000000" stroke="none" 
	d="
M322.958252,53.559792 
	C312.485931,53.960526 301.782806,53.978024 290.621704,53.987396 
	C290.605713,53.631023 291.048340,52.978176 291.489532,52.979156 
	C301.902283,53.002281 312.314850,53.095871 322.958252,53.559792 
z"/>
<path fill="#2A0C7F" opacity="1.000000" stroke="none" 
	d="
M290.270538,91.448883 
	C300.852112,91.021568 311.539215,91.020271 322.706909,91.037361 
	C322.526672,91.415222 321.865234,92.088463 321.205017,92.087219 
	C310.928589,92.067909 300.652344,91.961327 290.270538,91.448883 
z"/>
<path fill="#24017D" opacity="1.000000" stroke="none" 
	d="
M402.956207,90.955429 
	C403.109222,81.827049 403.262268,72.698669 403.726379,63.289719 
	C403.978668,72.577629 403.919891,82.146103 403.423706,91.587036 
	C402.976257,91.291466 402.966217,91.123444 402.956207,90.955429 
z"/>
<path fill="#24017D" opacity="1.000000" stroke="none" 
	d="
M366.572754,53.189159 
	C366.873138,62.495228 366.760834,71.952217 366.356140,81.707771 
	C366.095856,72.450912 366.127960,62.895496 366.572754,53.189159 
z"/>
<path fill="#2A0C7F" opacity="1.000000" stroke="none" 
	d="
M430.573242,53.225006 
	C430.998505,53.108982 431.002197,53.565075 431.006378,53.793343 
	C430.870575,63.156048 430.730591,72.290482 430.284058,81.710243 
	C430.034332,72.444054 430.091125,62.892540 430.573242,53.225006 
z"/>
<path fill="#2B0F7F" opacity="1.000000" stroke="none" 
	d="
M323.032593,87.531059 
	C314.355743,87.782013 305.446381,87.642975 296.286377,87.164734 
	C304.957153,86.930702 313.878632,87.035889 323.032593,87.531059 
z"/>
<path fill="#2D1280" opacity="1.000000" stroke="none" 
	d="
M106.453178,75.120529 
	C109.030853,74.688675 112.068657,74.081306 115.111282,74.056122 
	C120.889679,74.008301 126.670830,74.293755 132.736389,74.750839 
	C124.319801,75.109894 115.617645,75.158905 106.453178,75.120529 
z"/>
<path fill="#28067D" opacity="1.000000" stroke="none" 
	d="
M132.523773,69.972397 
	C125.191292,70.226578 117.393982,70.423843 109.304276,70.324066 
	C116.694221,69.989853 124.376579,69.952667 132.523773,69.972397 
z"/>
<path fill="#2D1280" opacity="1.000000" stroke="none" 
	d="
M138.943832,53.596313 
	C135.785431,53.514599 134.816101,55.060253 134.942596,58.191406 
	C135.079727,61.585342 134.744095,64.998383 134.320618,68.696548 
	C134.026627,63.806202 134.026627,58.622395 134.026627,52.958679 
	C135.732590,53.037880 137.269913,53.109253 138.943832,53.596313 
z"/>
<path fill="#2D1280" opacity="1.000000" stroke="none" 
	d="
M245.471588,54.033363 
	C245.049072,54.049568 245.015091,53.564594 245.002014,53.321854 
	C247.360184,53.029827 249.731445,52.980537 252.541748,53.001518 
	C250.618546,53.386909 248.256317,53.702030 245.471588,54.033363 
z"/>
<path fill="#2D1280" opacity="1.000000" stroke="none" 
	d="
M134.156555,91.401932 
	C135.473495,91.001801 136.859009,90.993385 138.661743,90.986649 
	C137.461014,91.256775 135.843094,91.525215 134.156555,91.401932 
z"/>
<path fill="#2D1280" opacity="1.000000" stroke="none" 
	d="
M402.549438,90.970421 
	C402.966217,91.123444 402.976257,91.291466 402.996979,91.711761 
	C401.687439,91.899231 400.367279,91.834427 398.958893,91.373299 
	C399.961365,90.979782 401.052002,90.982597 402.549438,90.970421 
z"/>
<path fill="#2D1280" opacity="1.000000" stroke="none" 
	d="
M107.011894,53.594429 
	C106.047195,53.965897 104.907845,53.991028 103.340942,54.014565 
	C104.221344,53.758015 105.529289,53.503052 107.011894,53.594429 
z"/>
<path fill="#2D1280" opacity="1.000000" stroke="none" 
	d="
M102.899033,74.305717 
	C103.204346,74.174660 103.495277,74.370773 103.899796,74.808670 
	C103.637131,74.911270 103.260895,74.772087 102.899033,74.305717 
z"/>
<path fill="#270A7E" opacity="1.000000" stroke="none" 
	d="
M301.806854,74.383057 
	C302.110077,74.221718 302.436401,74.388062 302.890320,74.802155 
	C302.621918,74.936852 302.225952,74.823792 301.806854,74.383057 
z"/>
<path fill="#301681" opacity="1.000000" stroke="none" 
	d="
M322.292389,58.094406 
	C322.215485,57.797966 322.448975,57.521069 322.943024,57.149345 
	C323.003296,57.407665 322.803070,57.760807 322.292389,58.094406 
z"/>
<path fill="#2D1280" opacity="1.000000" stroke="none" 
	d="
M404.254395,53.630013 
	C404.047455,53.769825 403.692474,53.645695 403.175049,53.287895 
	C403.377197,53.158176 403.741760,53.262123 404.254395,53.630013 
z"/>
<path fill="#2D1280" opacity="1.000000" stroke="none" 
	d="
M399.672974,53.034855 
	C399.777252,53.316280 399.564056,53.578678 399.110901,53.939316 
	C399.032440,53.696976 399.193939,53.356400 399.672974,53.034855 
z"/>
<path fill="#2D1280" opacity="1.000000" stroke="none" 
	d="
M271.726440,53.148842 
	C271.946594,53.250027 271.587708,53.559811 271.587708,53.559811 
	C271.587708,53.559811 271.171631,53.429626 271.100616,53.282001 
	C271.029602,53.134377 271.506317,53.047653 271.726440,53.148842 
z"/>
<path fill="#301681" opacity="1.000000" stroke="none" 
	d="
M224.737396,53.080185 
	C224.709137,53.238991 224.446106,53.326412 224.102249,53.259399 
	C224.021408,53.104969 224.502640,53.008808 224.737396,53.080185 
z"/>
<path fill="#FEFEFE" opacity="1.000000" stroke="none" 
	d="
M43.729637,26.686977 
	C44.201115,26.613636 44.348827,26.705193 44.744198,26.877171 
	C50.027946,32.049221 55.064041,37.140850 60.290665,42.524284 
	C55.181969,48.175167 49.882744,53.534248 44.294533,59.082821 
	C38.616196,53.861252 33.226833,48.450188 27.657223,42.764755 
	C32.786606,37.277546 38.096237,32.064713 43.729637,26.686977 
z"/>
<path fill="#F2F1F6" opacity="1.000000" stroke="none" 
	d="
M253.362457,70.919258 
	C251.740372,70.106018 249.699295,69.408707 249.574249,68.459114 
	C249.153320,65.262306 249.414139,61.975746 249.414139,58.302032 
	C256.432098,58.302032 262.852692,58.123337 269.256256,58.376469 
	C272.519470,58.505466 274.946655,60.335033 274.979980,63.994045 
	C275.012665,67.583374 272.817688,69.513092 269.475342,69.847343 
	C264.273651,70.367523 259.040955,70.577904 253.362457,70.919258 
z"/>
<path fill="#F3F2F7" opacity="1.000000" stroke="none" 
	d="
M222.338013,58.280254 
	C226.293701,58.820225 229.016235,60.621216 228.757828,64.360291 
	C228.489319,68.245499 225.658020,69.813675 221.780716,69.991150 
	C215.745834,70.267395 209.725525,70.862556 203.344360,71.349632 
	C203.344360,66.580627 203.344360,62.688343 203.344360,58.273895 
	C209.664871,58.273895 215.785187,58.273895 222.338013,58.280254 
z"/>
</svg>