<svg version="1.1" id="Layer_1" xmlns="http://www.w3.org/2000/svg" xmlns:xlink="http://www.w3.org/1999/xlink" x="0px" y="0px"
	 width="100%" viewBox="0 0 419 120" enable-background="new 0 0 419 120" xml:space="preserve">
<path fill="#FEFEFD" opacity="1.000000" stroke="none" 
	d="
M166.000000,121.000000 
	C111.057884,121.000000 56.115776,121.000000 1.086831,121.000000 
	C1.086831,81.100159 1.086831,41.200058 1.086831,1.000000 
	C44.353767,1.000000 87.708221,1.000000 131.556641,1.249284 
	C132.102219,1.657435 132.153839,1.816303 132.132446,2.440235 
	C132.116211,30.612400 132.173035,58.319504 132.175507,86.262848 
	C132.121170,86.499092 132.264236,86.962334 132.191010,87.312561 
	C132.325073,88.804924 132.532349,89.947067 132.700684,91.331085 
	C132.661728,91.572952 132.867035,92.017853 132.819244,92.354279 
	C132.872162,93.130470 132.972885,93.570244 133.033859,94.318924 
	C133.236084,95.167320 133.478073,95.706810 133.722778,96.183212 
	C133.725494,96.120117 133.635925,96.209167 133.643860,96.518684 
	C133.791550,97.214760 133.931320,97.601326 134.076416,98.347015 
	C137.921066,109.266182 145.994446,115.002533 156.302017,118.168350 
	C159.520935,119.156990 162.766586,120.058563 166.000000,121.000000 
M8.924687,58.931858 
	C8.783625,58.818157 8.642563,58.704456 8.585681,57.839451 
	C11.815697,45.983418 19.223684,37.733963 30.333401,32.703682 
	C41.377293,27.703205 52.601845,27.557016 65.049866,32.667587 
	C59.345943,26.585352 54.842499,21.520853 50.002075,16.802013 
	C48.756332,15.587560 46.178921,14.559896 44.683167,15.009551 
	C40.723656,16.199862 37.006111,18.212778 33.221916,19.962442 
	C30.602705,21.173464 27.575836,24.043945 25.534245,23.443264 
	C21.044548,22.122303 20.249163,24.638706 18.352228,27.337637 
	C15.460595,31.451805 11.785146,35.005596 8.650050,38.961792 
	C6.863213,41.216618 4.968712,43.620361 4.060800,46.277580 
	C2.950494,49.527157 2.461823,53.099854 2.340967,56.555096 
	C2.033123,65.356293 3.097460,73.956421 7.679740,83.229347 
	C9.250299,80.178520 10.795780,78.296310 11.200454,76.194458 
	C12.861230,67.568481 18.362688,63.228287 26.434605,60.967609 
	C32.743874,59.200588 37.603252,55.167492 40.966274,49.478134 
	C44.247711,43.926804 47.481651,38.347401 50.750038,32.757065 
	C32.121563,33.389900 17.556581,41.238556 8.924687,58.931858 
M30.999374,85.362869 
	C30.093607,87.862022 28.717485,90.311249 28.445040,92.877640 
	C28.258932,94.630768 29.078039,97.209862 30.381922,98.262566 
	C33.831615,101.047684 37.813976,103.166695 41.520267,105.646576 
	C42.134045,106.057259 42.793812,106.944893 42.804615,107.622116 
	C42.872475,111.877014 45.793766,111.575645 48.409733,110.942596 
	C53.673466,109.668823 57.934914,111.633667 62.659336,113.657623 
	C66.654167,115.369019 71.800720,116.145256 76.008644,115.270981 
	C87.738914,112.833786 97.402977,106.363197 105.225960,97.256683 
	C106.012787,96.340767 106.554405,95.214211 107.962334,93.004196 
	C104.522896,93.280556 102.158363,93.001381 100.145912,93.715050 
	C92.260780,96.511292 85.871758,94.270386 80.111366,88.695160 
	C75.116539,83.860909 68.928894,81.510788 62.051968,81.288757 
	C55.555702,81.079018 49.047348,81.243721 42.568626,81.243721 
	C52.180367,97.083809 66.665054,105.229378 86.246574,104.209335 
	C69.207520,110.813698 40.421703,101.564873 34.504745,68.913551 
	C33.431934,73.942009 32.299049,79.252029 30.999374,85.362869 
M76.010078,38.061371 
	C77.218132,41.486870 78.093559,45.079044 79.708038,48.300880 
	C82.502419,53.877296 85.754951,59.224125 88.799171,64.638550 
	C97.453804,49.713295 97.553055,33.936398 89.046364,17.872427 
	C105.847580,32.129421 101.622414,59.757141 80.493782,77.659531 
	C88.395744,75.694321 96.409187,73.821487 104.329422,71.614212 
	C105.660172,71.243355 107.285179,69.574371 107.567818,68.248093 
	C108.344330,64.604279 108.517029,60.827148 108.852547,57.095928 
	C109.023758,55.191933 109.611969,53.053684 108.989388,51.408092 
	C107.788834,48.234840 108.570694,46.306709 111.427330,44.898132 
	C114.044502,43.607632 114.260567,41.934677 112.335556,39.790108 
	C111.114220,38.429462 110.089325,36.892414 108.867233,35.532528 
	C106.046867,32.394180 103.604591,29.363646 104.840019,24.503595 
	C105.239357,22.932674 103.878166,20.055506 102.431702,19.020374 
	C95.587883,14.122723 88.675430,9.214035 81.297768,5.211966 
	C77.283089,3.034175 72.291687,2.656926 67.740822,1.467578 
	C67.446457,1.951659 67.152084,2.435740 66.857719,2.919821 
	C68.433617,5.165217 69.638062,7.844502 71.656723,9.572722 
	C77.189087,14.309102 77.940109,20.116091 76.777802,26.776274 
	C76.183067,30.184204 76.197388,33.698421 76.010078,38.061371 
M65.886589,33.263939 
	C65.669693,32.911922 65.452797,32.559906 65.235901,32.207890 
	C65.264404,32.680084 65.292908,33.152275 65.886589,33.263939 
z"/>
<path fill="#176EB4" opacity="1.000000" stroke="none" 
	d="
M390.000000,1.000000 
	C398.687561,1.000000 407.375122,1.000000 416.709167,1.263668 
	C417.735352,1.712205 418.115051,1.897074 418.602417,2.535076 
	C418.721802,26.474426 418.763611,49.960682 418.734192,73.446846 
	C418.716034,87.930992 418.589294,102.414993 418.271942,116.985512 
	C418.204224,117.337616 418.375885,117.603271 418.538300,118.227356 
	C408.723694,118.719292 398.918152,118.914154 389.113190,118.889351 
	C388.155426,118.886932 386.783997,117.737663 386.306915,116.773285 
	C377.461121,98.892502 368.722076,80.958878 359.974609,62.703979 
	C359.499786,61.784187 359.010895,61.196808 357.778107,59.715588 
	C358.058685,61.692204 358.166473,62.451580 358.293701,63.631927 
	C358.438538,69.994812 358.563934,75.936722 358.505371,82.169647 
	C358.470978,84.008957 358.620605,85.557236 358.789581,87.567017 
	C358.832764,97.031166 358.856628,106.033806 358.585815,115.281723 
	C356.646484,116.017677 355.011475,116.891716 353.355499,116.933449 
	C345.707153,117.126221 338.052979,117.087395 330.293823,116.729263 
	C330.172485,112.166481 330.151093,108.006035 330.145020,103.845566 
	C330.095093,69.563713 330.047974,35.281857 330.000000,1.000000 
	C339.687561,1.000000 349.375122,1.000000 359.436829,1.360809 
	C369.795044,20.861713 379.779144,40.001808 390.000000,59.595760 
	C390.000000,39.761276 390.000000,20.380638 390.000000,1.000000 
z"/>
<path fill="#176EB4" opacity="1.000000" stroke="none" 
	d="
M289.000000,1.000000 
	C298.354218,1.000000 307.708466,1.000000 317.575684,1.466889 
	C318.088715,40.689262 318.088715,79.444748 318.088715,118.462265 
	C307.882874,118.462265 298.147034,118.462265 287.869385,118.462265 
	C287.869385,102.010895 287.869385,85.793022 287.869385,69.452202 
	C279.588318,69.452202 271.851715,69.452202 263.489441,69.452202 
	C263.489441,85.956749 263.489441,102.170654 263.489441,118.314026 
	C252.978806,118.314026 243.103226,118.314026 233.010712,118.314026 
	C233.010712,114.746796 233.005981,111.590393 233.011429,108.434006 
	C233.072647,72.967949 233.135437,37.501884 233.653168,2.024228 
	C243.405685,2.008581 252.702850,2.004532 262.106628,2.221552 
	C262.413696,2.718116 262.677399,2.903630 263.105164,3.458742 
	C263.205963,17.147593 263.205963,30.376863 263.205963,43.604225 
	C271.755035,43.604225 279.620636,43.604225 288.031403,43.604225 
	C288.031403,29.503155 288.031403,15.748100 288.246979,1.886964 
	C288.727875,1.579900 288.907013,1.319606 289.000000,1.000000 
z"/>
<path fill="#176EB4" opacity="1.000000" stroke="none" 
	d="
M132.229858,86.026604 
	C132.173035,58.319504 132.116211,30.612400 132.314056,2.322472 
	C132.786148,1.536063 132.929916,1.289515 133.000000,1.000000 
	C142.020889,1.000000 151.041794,1.000000 160.530212,1.468656 
	C160.997482,17.670048 160.957153,33.403038 161.057556,49.135136 
	C161.067841,50.746628 161.920731,52.352745 162.521240,54.344051 
	C162.762970,63.722523 162.566956,72.734375 163.048965,81.709801 
	C163.586395,91.716423 167.000534,95.041603 176.682190,96.271706 
	C182.841904,97.054321 188.518692,93.454414 189.768326,87.381699 
	C190.599442,83.342827 190.873520,79.130318 190.893143,74.993149 
	C191.010117,50.329151 190.980438,25.664459 191.000000,1.000000 
	C200.354233,1.000000 209.708450,1.000000 219.650635,1.228297 
	C220.521255,1.643944 220.803909,1.831293 221.199158,2.474949 
	C221.313339,30.399101 220.910263,57.874943 221.452744,85.332100 
	C221.841995,105.033707 211.212418,113.291656 197.196625,117.938370 
	C193.529175,119.154259 189.735626,119.989792 186.000000,121.000000 
	C179.645599,121.000000 173.291214,121.000000 166.468414,121.000000 
	C162.766586,120.058563 159.520935,119.156990 156.302017,118.168350 
	C145.994446,115.002533 137.921066,109.266182 134.294235,98.176361 
	C134.216461,97.167435 133.926193,96.688301 133.635925,96.209167 
	C133.635925,96.209167 133.725494,96.120117 133.795731,95.869743 
	C133.601852,95.082916 133.337738,94.546463 133.073608,94.010017 
	C132.972885,93.570244 132.872162,93.130470 133.001907,92.260956 
	C133.068130,91.583878 132.903885,91.336540 132.739624,91.089211 
	C132.532349,89.947067 132.325073,88.804924 132.319153,87.218307 
	C132.681198,86.446594 132.584320,86.197517 132.229858,86.026604 
z"/>
<path fill="#FCFDFE" opacity="1.000000" stroke="none" 
	d="
M186.468658,121.000000 
	C189.735626,119.989792 193.529175,119.154259 197.196625,117.938370 
	C211.212418,113.291656 221.841995,105.033707 221.452744,85.332100 
	C220.910263,57.874943 221.313339,30.399101 221.262695,2.213067 
	C221.142441,1.329919 221.071213,1.164960 221.000000,1.000000 
	C224.692902,1.000000 228.385818,1.000000 232.574280,1.261732 
	C233.112488,1.694251 233.155151,1.865038 233.197800,2.035825 
	C233.135437,37.501884 233.072647,72.967949 233.011429,108.434006 
	C233.005981,111.590393 233.010712,114.746796 233.010712,118.314026 
	C243.103226,118.314026 252.978806,118.314026 263.489441,118.314026 
	C263.489441,102.170654 263.489441,85.956749 263.489441,69.452202 
	C271.851715,69.452202 279.588318,69.452202 287.869385,69.452202 
	C287.869385,85.793022 287.869385,102.010895 287.869385,118.462265 
	C298.147034,118.462265 307.882874,118.462265 318.088715,118.462265 
	C318.088715,79.444748 318.088715,40.689262 318.044373,1.466889 
	C321.692902,1.000000 325.385834,1.000000 329.539368,1.000000 
	C330.047974,35.281857 330.095093,69.563713 330.145020,103.845566 
	C330.151093,108.006035 330.172485,112.166481 330.394104,117.156487 
	C339.409546,118.145424 348.217651,118.304817 357.285400,118.596268 
	C357.961884,118.466721 358.378723,118.205109 358.904755,117.590607 
	C358.969452,116.503952 358.924957,115.770203 358.880463,115.036453 
	C358.856628,106.033806 358.832764,97.031166 358.899841,87.138847 
	C358.890320,84.792328 358.789856,83.335480 358.689362,81.878632 
	C358.563934,75.936722 358.438538,69.994812 358.573334,63.560875 
	C359.209229,63.058029 359.584900,63.047211 359.960571,63.036392 
	C368.722076,80.958878 377.461121,98.892502 386.306915,116.773285 
	C386.783997,117.737663 388.155426,118.886932 389.113190,118.889351 
	C398.918152,118.914154 408.723694,118.719292 418.593262,117.982513 
	C418.608795,117.219185 418.560089,117.059128 418.511353,116.899063 
	C418.589294,102.414993 418.716034,87.930992 418.734192,73.446846 
	C418.763611,49.960682 418.721802,26.474426 418.627777,2.196175 
	C418.363647,1.269427 418.181824,1.134714 418.000000,1.000000 
	C420.485016,0.373592 419.991974,2.165664 419.993774,3.494473 
	C420.005798,12.316926 420.000000,21.139402 420.000000,29.961870 
	C420.000000,60.257893 420.000000,90.553917 420.000000,121.000000 
	C342.312500,121.000000 264.624908,121.000000 186.468658,121.000000 
z"/>
<path fill="#FEFEFF" opacity="1.000000" stroke="none" 
	d="
M190.531342,1.000000 
	C190.980438,25.664459 191.010117,50.329151 190.893143,74.993149 
	C190.873520,79.130318 190.599442,83.342827 189.768326,87.381699 
	C188.518692,93.454414 182.841904,97.054321 176.682190,96.271706 
	C167.000534,95.041603 163.586395,91.716423 163.048965,81.709801 
	C162.566956,72.734375 162.762970,63.722523 162.642181,53.892807 
	C162.749664,35.705914 162.874832,18.352957 163.000000,1.000000 
	C172.020889,1.000000 181.041794,1.000000 190.531342,1.000000 
z"/>
<path fill="#F9FBFD" opacity="1.000000" stroke="none" 
	d="
M288.031403,1.993047 
	C288.031403,15.748100 288.031403,29.503155 288.031403,43.604225 
	C279.620636,43.604225 271.755035,43.604225 263.205963,43.604225 
	C263.205963,30.376863 263.205963,17.147593 263.169434,3.208894 
	C263.089172,2.333118 263.045441,2.166768 263.071503,1.750191 
	C263.094208,1.333310 263.047119,1.166655 263.000000,1.000000 
	C271.020905,1.000000 279.041809,1.000000 287.483093,1.250036 
	C287.946106,1.664397 287.988739,1.828722 288.031403,1.993047 
z"/>
<path fill="#FDFEFE" opacity="1.000000" stroke="none" 
	d="
M389.531342,1.000000 
	C390.000000,20.380638 390.000000,39.761276 390.000000,59.595760 
	C379.779144,40.001808 369.795044,20.861713 359.905457,1.360809 
	C369.687561,1.000000 379.375122,1.000000 389.531342,1.000000 
z"/>
<path fill="#0569B2" opacity="1.000000" stroke="none" 
	d="
M162.666672,1.000000 
	C162.874832,18.352957 162.749664,35.705914 162.503571,53.510117 
	C161.920731,52.352745 161.067841,50.746628 161.057556,49.135136 
	C160.957153,33.403038 160.997482,17.670048 160.998871,1.468656 
	C161.444443,1.000000 161.888901,1.000000 162.666672,1.000000 
z"/>
<path fill="#3A82BE" opacity="1.000000" stroke="none" 
	d="
M262.531342,1.000000 
	C263.047119,1.166655 263.094208,1.333310 262.821045,1.740082 
	C262.333893,1.986960 262.166962,1.993721 262.000000,2.000482 
	C252.702850,2.004532 243.405685,2.008581 233.653168,2.024228 
	C233.155151,1.865038 233.112488,1.694251 233.034912,1.261732 
	C242.687561,1.000000 252.375122,1.000000 262.531342,1.000000 
z"/>
<path fill="#0D6AB3" opacity="1.000000" stroke="none" 
	d="
M417.750000,1.000000 
	C418.181824,1.134714 418.363647,1.269427 418.520111,1.743042 
	C418.115051,1.897074 417.735352,1.712205 417.177826,1.263668 
	C417.000000,1.000000 417.500000,1.000000 417.750000,1.000000 
z"/>
<path fill="#0064B0" opacity="1.000000" stroke="none" 
	d="
M288.246979,1.886964 
	C287.988739,1.828722 287.946106,1.664397 287.951752,1.250036 
	C288.000000,1.000000 288.500000,1.000000 288.750000,1.000000 
	C288.907013,1.319606 288.727875,1.579900 288.246979,1.886964 
z"/>
<path fill="#0065B0" opacity="1.000000" stroke="none" 
	d="
M220.750000,1.000000 
	C221.071213,1.164960 221.142441,1.329919 221.150116,1.756761 
	C220.803909,1.831293 220.521255,1.643944 220.119293,1.228297 
	C220.000000,1.000000 220.500000,1.000000 220.750000,1.000000 
z"/>
<path fill="#1871B7" opacity="1.000000" stroke="none" 
	d="
M132.750000,1.000000 
	C132.929916,1.289515 132.786148,1.536063 132.387100,1.857408 
	C132.153839,1.816303 132.102219,1.657435 132.025299,1.249284 
	C132.000000,1.000000 132.500000,1.000000 132.750000,1.000000 
z"/>
<path fill="#B19A65" opacity="1.000000" stroke="none" 
	d="
M31.082769,84.962463 
	C32.299049,79.252029 33.431934,73.942009 34.504745,68.913551 
	C40.421703,101.564873 69.207520,110.813698 86.246574,104.209335 
	C66.665054,105.229378 52.180367,97.083809 42.568626,81.243721 
	C49.047348,81.243721 55.555702,81.079018 62.051968,81.288757 
	C68.928894,81.510788 75.116539,83.860909 80.111366,88.695160 
	C85.871758,94.270386 92.260780,96.511292 100.145912,93.715050 
	C102.158363,93.001381 104.522896,93.280556 107.962334,93.004196 
	C106.554405,95.214211 106.012787,96.340767 105.225960,97.256683 
	C97.402977,106.363197 87.738914,112.833786 76.008644,115.270981 
	C71.800720,116.145256 66.654167,115.369019 62.659336,113.657623 
	C57.934914,111.633667 53.673466,109.668823 48.409733,110.942596 
	C45.793766,111.575645 42.872475,111.877014 42.804615,107.622116 
	C42.793812,106.944893 42.134045,106.057259 41.520267,105.646576 
	C37.813976,103.166695 33.831615,101.047684 30.381922,98.262566 
	C29.078039,97.209862 28.258932,94.630768 28.445040,92.877640 
	C28.717485,90.311249 30.093607,87.862022 31.082769,84.962463 
z"/>
<path fill="#B19A66" opacity="1.000000" stroke="none" 
	d="
M75.973267,37.612988 
	C76.197388,33.698421 76.183067,30.184204 76.777802,26.776274 
	C77.940109,20.116091 77.189087,14.309102 71.656723,9.572722 
	C69.638062,7.844502 68.433617,5.165217 66.857719,2.919821 
	C67.152084,2.435740 67.446457,1.951659 67.740822,1.467578 
	C72.291687,2.656926 77.283089,3.034175 81.297768,5.211966 
	C88.675430,9.214035 95.587883,14.122723 102.431702,19.020374 
	C103.878166,20.055506 105.239357,22.932674 104.840019,24.503595 
	C103.604591,29.363646 106.046867,32.394180 108.867233,35.532528 
	C110.089325,36.892414 111.114220,38.429462 112.335556,39.790108 
	C114.260567,41.934677 114.044502,43.607632 111.427330,44.898132 
	C108.570694,46.306709 107.788834,48.234840 108.989388,51.408092 
	C109.611969,53.053684 109.023758,55.191933 108.852547,57.095928 
	C108.517029,60.827148 108.344330,64.604279 107.567818,68.248093 
	C107.285179,69.574371 105.660172,71.243355 104.329422,71.614212 
	C96.409187,73.821487 88.395744,75.694321 80.493782,77.659531 
	C101.622414,59.757141 105.847580,32.129421 89.046364,17.872427 
	C97.553055,33.936398 97.453804,49.713295 88.799171,64.638550 
	C85.754951,59.224125 82.502419,53.877296 79.708038,48.300880 
	C78.093559,45.079044 77.218132,41.486870 75.973267,37.612988 
M87.909737,17.019892 
	C88.170502,16.986601 88.431259,16.953310 88.692024,16.920019 
	C88.510330,16.568390 88.328636,16.216759 87.860596,15.352140 
	C87.414711,15.317378 86.968834,15.282616 86.522949,15.247855 
	C86.854492,15.698524 87.186035,16.149193 87.909737,17.019892 
z"/>
<path fill="#B19A66" opacity="1.000000" stroke="none" 
	d="
M9.337095,59.285919 
	C17.556581,41.238556 32.121563,33.389900 50.750038,32.757065 
	C47.481651,38.347401 44.247711,43.926804 40.966274,49.478134 
	C37.603252,55.167492 32.743874,59.200588 26.434605,60.967609 
	C18.362688,63.228287 12.861230,67.568481 11.200454,76.194458 
	C10.795780,78.296310 9.250299,80.178520 7.679740,83.229347 
	C3.097460,73.956421 2.033123,65.356293 2.340967,56.555096 
	C2.461823,53.099854 2.950494,49.527157 4.060800,46.277580 
	C4.968712,43.620361 6.863213,41.216618 8.650050,38.961792 
	C11.785146,35.005596 15.460595,31.451805 18.352228,27.337637 
	C20.249163,24.638706 21.044548,22.122303 25.534245,23.443264 
	C27.575836,24.043945 30.602705,21.173464 33.221916,19.962442 
	C37.006111,18.212778 40.723656,16.199862 44.683167,15.009551 
	C46.178921,14.559896 48.756332,15.587560 50.002075,16.802013 
	C54.842499,21.520853 59.345943,26.585352 65.049866,32.667587 
	C52.601845,27.557016 41.377293,27.703205 30.333401,32.703682 
	C19.223684,37.733963 11.815697,45.983418 8.367341,58.479366 
	C7.895861,59.954609 7.642722,60.789932 7.389583,61.625259 
	C7.675501,61.729683 7.961420,61.834106 8.247338,61.938530 
	C8.610591,61.054325 8.973844,60.170124 9.337095,59.285919 
z"/>
<path fill="#1871B7" opacity="1.000000" stroke="none" 
	d="
M133.033859,94.318924 
	C133.337738,94.546463 133.601852,95.082916 133.793015,95.932831 
	C133.478073,95.706810 133.236084,95.167320 133.033859,94.318924 
z"/>
<path fill="#1871B7" opacity="1.000000" stroke="none" 
	d="
M133.643860,96.518684 
	C133.926193,96.688301 134.216461,97.167435 134.288910,97.817230 
	C133.931320,97.601326 133.791550,97.214760 133.643860,96.518684 
z"/>
<path fill="#B19A66" opacity="1.000000" stroke="none" 
	d="
M65.604004,33.444206 
	C65.292908,33.152275 65.264404,32.680084 65.235901,32.207890 
	C65.452797,32.559906 65.669693,32.911922 65.604004,33.444206 
z"/>
<path fill="#1871B7" opacity="1.000000" stroke="none" 
	d="
M132.175507,86.262848 
	C132.584320,86.197517 132.681198,86.446594 132.392365,86.868088 
	C132.264236,86.962334 132.121170,86.499092 132.175507,86.262848 
z"/>
<path fill="#1871B7" opacity="1.000000" stroke="none" 
	d="
M132.700684,91.331085 
	C132.903885,91.336540 133.068130,91.583878 133.049713,91.924530 
	C132.867035,92.017853 132.661728,91.572952 132.700684,91.331085 
z"/>
<path fill="#0068B2" opacity="1.000000" stroke="none" 
	d="
M357.025787,118.464211 
	C348.217651,118.304817 339.409546,118.145424 330.501160,117.558807 
	C338.052979,117.087395 345.707153,117.126221 353.355499,116.933449 
	C355.011475,116.891716 356.646484,116.017677 358.585785,115.281723 
	C358.924957,115.770203 358.969452,116.503952 358.663483,117.584351 
	C357.883942,118.108734 357.454865,118.286469 357.025787,118.464211 
z"/>
<path fill="#85ACD3" opacity="1.000000" stroke="none" 
	d="
M359.974609,62.703979 
	C359.584900,63.047211 359.209229,63.058029 358.553894,63.139904 
	C358.166473,62.451580 358.058685,61.692204 357.778107,59.715588 
	C359.010895,61.196808 359.499786,61.784187 359.974609,62.703979 
z"/>
<path fill="#85ACD3" opacity="1.000000" stroke="none" 
	d="
M358.505371,82.169647 
	C358.789856,83.335480 358.890320,84.792328 358.880493,86.677353 
	C358.620605,85.557236 358.470978,84.008957 358.505371,82.169647 
z"/>
<path fill="#0D6AB3" opacity="1.000000" stroke="none" 
	d="
M418.271973,116.985512 
	C418.560089,117.059128 418.608795,117.219185 418.602539,117.624084 
	C418.375885,117.603271 418.204224,117.337616 418.271973,116.985512 
z"/>
<path fill="#0064B0" opacity="1.000000" stroke="none" 
	d="
M262.106628,2.221552 
	C262.166962,1.993721 262.333893,1.986960 262.751282,1.990308 
	C263.045441,2.166768 263.089172,2.333118 263.068665,2.749316 
	C262.677399,2.903630 262.413696,2.718116 262.106628,2.221552 
z"/>
<path fill="#347FBD" opacity="1.000000" stroke="none" 
	d="
M357.285400,118.596268 
	C357.454865,118.286469 357.883942,118.108734 358.554291,117.937248 
	C358.378723,118.205109 357.961884,118.466721 357.285400,118.596268 
z"/>
<path fill="#FEFEFD" opacity="1.000000" stroke="none" 
	d="
M87.517578,16.599861 
	C87.186035,16.149193 86.854492,15.698524 86.522949,15.247854 
	C86.968834,15.282616 87.414711,15.317378 87.833023,15.780830 
	C87.805443,16.209520 87.517578,16.599859 87.517578,16.599861 
z"/>
<path fill="#FEFEFD" opacity="1.000000" stroke="none" 
	d="
M87.976196,16.037325 
	C88.328636,16.216759 88.510330,16.568390 88.692024,16.920019 
	C88.431259,16.953310 88.170502,16.986601 87.713654,16.809875 
	C87.517578,16.599859 87.805443,16.209520 87.976196,16.037325 
z"/>
<path fill="#FEFEFD" opacity="1.000000" stroke="none" 
	d="
M9.130892,59.108887 
	C8.973844,60.170124 8.610591,61.054325 8.247338,61.938530 
	C7.961420,61.834106 7.675501,61.729683 7.389583,61.625259 
	C7.642722,60.789932 7.895861,59.954609 8.325251,58.855019 
	C8.642563,58.704456 8.783625,58.818157 9.130892,59.108887 
z"/>
</svg>