<svg width="49" height="48" viewBox="0 0 49 48" fill="none" xmlns="http://www.w3.org/2000/svg">
<g id="Icon">
<g id="Group 1">
<path id="Vector" d="M27.4164 19.0109C27.1043 19.0109 26.8507 18.7576 26.8507 18.4452V17.4839C26.8507 17.1719 27.1039 16.9182 27.4164 16.9182C27.7284 16.9182 27.982 17.1715 27.982 17.4839V18.4452C27.982 18.7576 27.7284 19.0109 27.4164 19.0109Z" fill="#1A1A1A"/>
<path id="Vector_2" d="M25.0381 19.0109C24.726 19.0109 24.4724 18.7576 24.4724 18.4452V17.4839C24.4724 17.1719 24.7256 16.9182 25.0381 16.9182C25.3501 16.9182 25.6037 17.1715 25.6037 17.4839V18.4452C25.6033 18.7576 25.3505 19.0109 25.0381 19.0109Z" fill="#1A1A1A"/>
<path id="Vector_3" d="M22.66 19.0109C22.348 19.0109 22.0944 18.7576 22.0944 18.4452V17.4839C22.0944 17.1719 22.3476 16.9182 22.66 16.9182C22.9721 16.9182 23.2257 17.1715 23.2257 17.4839V18.4452C23.2257 18.7576 22.9725 19.0109 22.66 19.0109Z" fill="#1A1A1A"/>
<path id="Vector_4" d="M27.4164 22.9421C27.1043 22.9421 26.8507 22.6888 26.8507 22.3764V21.4155C26.8507 21.1034 27.1039 20.8498 27.4164 20.8498C27.7284 20.8498 27.982 21.103 27.982 21.4155V22.3764C27.982 22.6888 27.7284 22.9421 27.4164 22.9421Z" fill="#1A1A1A"/>
<path id="Vector_5" d="M25.0381 22.9421C24.726 22.9421 24.4724 22.6888 24.4724 22.3764V21.4155C24.4724 21.1034 24.7256 20.8498 25.0381 20.8498C25.3501 20.8498 25.6037 21.103 25.6037 21.4155V22.3764C25.6033 22.6888 25.3505 22.9421 25.0381 22.9421Z" fill="#1A1A1A"/>
<path id="Vector_6" d="M22.66 22.9421C22.348 22.9421 22.0944 22.6888 22.0944 22.3764V21.4155C22.0944 21.1034 22.3476 20.8498 22.66 20.8498C22.9721 20.8498 23.2257 21.103 23.2257 21.4155V22.3764C23.2257 22.6888 22.9725 22.9421 22.66 22.9421Z" fill="#1A1A1A"/>
<path id="Vector_7" d="M27.4164 26.8734C27.1043 26.8734 26.8507 26.6201 26.8507 26.3077V25.3464C26.8507 25.0344 27.1039 24.7807 27.4164 24.7807C27.7284 24.7807 27.982 25.0339 27.982 25.3464V26.3077C27.982 26.6201 27.7284 26.8734 27.4164 26.8734Z" fill="#1A1A1A"/>
<path id="Vector_8" d="M25.0381 26.8734C24.726 26.8734 24.4724 26.6201 24.4724 26.3077V25.3464C24.4724 25.0344 24.7256 24.7807 25.0381 24.7807C25.3501 24.7807 25.6037 25.0339 25.6037 25.3464V26.3077C25.6033 26.6201 25.3505 26.8734 25.0381 26.8734Z" fill="#1A1A1A"/>
<path id="Vector_9" d="M22.66 26.8734C22.348 26.8734 22.0944 26.6201 22.0944 26.3077V25.3464C22.0944 25.0344 22.3476 24.7807 22.66 24.7807C22.9721 24.7807 23.2257 25.0339 23.2257 25.3464V26.3077C23.2257 26.6201 22.9725 26.8734 22.66 26.8734Z" fill="#1A1A1A"/>
<path id="Vector_10" d="M27.4164 30.8038C27.1043 30.8038 26.8507 30.5505 26.8507 30.2381V29.2768C26.8507 28.9648 27.1039 28.7111 27.4164 28.7111C27.7284 28.7111 27.982 28.9644 27.982 29.2768V30.2381C27.982 30.5505 27.7284 30.8038 27.4164 30.8038Z" fill="#1A1A1A"/>
<path id="Vector_11" d="M25.0381 30.8038C24.726 30.8038 24.4724 30.5505 24.4724 30.2381V29.2768C24.4724 28.9648 24.7256 28.7111 25.0381 28.7111C25.3501 28.7111 25.6037 28.9644 25.6037 29.2768V30.2381C25.6033 30.5505 25.3505 30.8038 25.0381 30.8038Z" fill="#1A1A1A"/>
<path id="Vector_12" d="M22.66 30.8038C22.348 30.8038 22.0944 30.5505 22.0944 30.2381V29.2768C22.0944 28.9648 22.3476 28.7111 22.66 28.7111C22.9721 28.7111 23.2257 28.9644 23.2257 29.2768V30.2381C23.2257 30.5505 22.9725 30.8038 22.66 30.8038Z" fill="#1A1A1A"/>
<path id="Vector_13" d="M27.4164 34.735C27.1043 34.735 26.8507 34.4817 26.8507 34.1693V33.2084C26.8507 32.8964 27.1039 32.6427 27.4164 32.6427C27.7284 32.6427 27.982 32.896 27.982 33.2084V34.1693C27.982 34.4813 27.7284 34.735 27.4164 34.735Z" fill="#1A1A1A"/>
<path id="Vector_14" d="M25.0381 34.735C24.726 34.735 24.4724 34.4817 24.4724 34.1693V33.2084C24.4724 32.8964 24.7256 32.6427 25.0381 32.6427C25.3501 32.6427 25.6037 32.896 25.6037 33.2084V34.1693C25.6033 34.4813 25.3505 34.735 25.0381 34.735Z" fill="#1A1A1A"/>
<path id="Vector_15" d="M22.66 34.735C22.348 34.735 22.0944 34.4817 22.0944 34.1693L22.0948 33.2084C22.0948 32.8964 22.348 32.6427 22.6604 32.6427C22.9725 32.6427 23.2261 32.896 23.2261 33.2084V34.1693C23.2257 34.4813 22.9725 34.735 22.66 34.735Z" fill="#1A1A1A"/>
<path id="Vector_16" d="M6.50047 38.6472C6.50047 38.9592 6.75372 39.2128 7.06615 39.2128H41.5139C41.8259 39.2128 42.0796 38.9596 42.0796 38.6472C42.0796 38.3351 41.8263 38.0815 41.5139 38.0815H40.4682V21.8402C40.4682 21.5282 40.215 21.2745 39.9025 21.2745L30.6668 21.2749V9.56579C30.6668 9.36777 30.5635 9.18474 30.3946 9.08217C30.2262 8.97922 30.0156 8.9729 29.8404 9.06402L19.3401 14.531C19.1527 14.6284 19.0359 14.8217 19.0359 15.0328V25.2605H8.87388C8.56186 25.2605 8.3082 25.5137 8.3082 25.8261V38.0816H7.06489C6.75287 38.0812 6.5 38.3344 6.5 38.6469L6.50047 38.6472ZM30.667 29.8423H39.3374V38.082L30.667 38.0816V29.8423ZM30.667 25.9113H39.3374V28.7113L30.667 28.7109V25.9113ZM30.667 22.4057H39.3374V24.7808H30.667V22.4057ZM20.1667 15.3763L29.5353 10.4982V38.0811H20.1667V15.3763ZM12.2359 33.5635C12.2359 32.3896 13.166 31.4342 14.3096 31.4342C15.4531 31.4342 16.3837 32.3892 16.3837 33.5635V38.0818H12.2359V33.5635ZM9.43952 26.3916H19.0358V38.0816H17.515V33.5633C17.515 31.7657 16.0776 30.303 14.3096 30.303C12.5424 30.303 11.105 31.7653 11.105 33.5633V38.0816H9.43952V26.3916Z" fill="#1A1A1A"/>
</g>
</g>
</svg>
