<svg width="48" height="48" viewBox="0 0 48 48" fill="none" xmlns="http://www.w3.org/2000/svg">
<g id="Icon">
<g id="Group 2">
<path id="Vector" d="M28.3116 23.6447C28.0708 23.6447 27.8472 23.5785 27.6486 23.472V23.4748C27.6486 23.8537 27.5014 24.2094 27.2342 24.4759C26.967 24.7431 26.6115 24.8903 26.2331 24.8903C25.9888 24.8903 25.7624 24.8225 25.5617 24.7131C25.5414 25.0597 25.4029 25.3837 25.1557 25.6311C24.8886 25.8982 24.5331 26.0455 24.1544 26.0455C23.4021 26.0455 22.7912 25.4541 22.7472 24.7129C22.5144 24.8387 22.2513 24.9047 21.9798 24.8873C21.2398 24.8387 20.6602 24.1993 20.6602 23.4312V17.0646L19.9353 18.3206C19.6592 18.8009 19.1423 19.0992 18.5858 19.0992C18.3146 19.0992 18.0467 19.028 17.8095 18.8921C17.514 18.7208 17.3027 18.4459 17.2148 18.117C17.1265 17.7878 17.1722 17.4436 17.343 17.1486C17.3432 17.1486 19.715 13.0414 19.8597 12.7891C19.8769 12.7512 19.9259 12.6412 19.9676 12.5474C20.0074 12.4579 20.0416 12.366 20.0743 12.2737C20.7896 10.2544 22.5606 9.00004 24.6965 9.00004C27.4702 9.00004 29.7268 11.4469 29.7268 14.4546L29.727 22.229C29.727 22.6074 29.58 22.9629 29.313 23.2303C29.0459 23.4975 28.6904 23.6447 28.3115 23.6447L28.3116 23.6447ZM24.6965 9.75218C22.8612 9.75218 21.3984 10.7888 20.7833 12.5252C20.7439 12.6355 20.7029 12.7457 20.6551 12.8532C20.5163 13.1644 20.5163 13.1644 20.4772 13.2091L20.472 13.2047C20.2784 13.5701 19.703 14.5664 17.9942 17.5251C17.924 17.6464 17.9054 17.7873 17.9412 17.922C17.9775 18.0568 18.0645 18.1704 18.1849 18.2399C18.5585 18.4545 19.0702 18.316 19.2832 17.9449L20.7107 15.4734C20.796 15.3262 20.9684 15.2539 21.1338 15.2986C21.2983 15.3427 21.4125 15.4918 21.4125 15.6619V23.4315C21.4125 23.798 21.6891 24.1144 22.0291 24.1368C22.2251 24.1472 22.408 24.0815 22.5453 23.9443C22.6702 23.8195 22.739 23.6531 22.739 23.4753V18.3939C22.739 18.1861 22.9074 18.0176 23.1152 18.0176C23.323 18.0176 23.4915 18.1859 23.4915 18.3939L23.4912 24.6303C23.4912 24.9959 23.7888 25.2935 24.1544 25.2935C24.3321 25.2935 24.4989 25.2247 24.624 25.0998C24.7489 24.9747 24.8177 24.8079 24.8177 24.6303V18.3939C24.8177 18.1861 24.9859 18.0176 25.1939 18.0176C25.4017 18.0176 25.5702 18.1858 25.5702 18.3939L25.5699 23.4168V23.4752C25.5699 23.8407 25.8675 24.1382 26.2334 24.1382C26.4108 24.1382 26.5771 24.0692 26.7029 23.9438C26.8278 23.8192 26.8966 23.6529 26.8966 23.475V18.3936C26.8966 18.1858 27.0648 18.0174 27.2728 18.0174C27.4806 18.0174 27.6491 18.1856 27.6491 18.3936L27.6486 22.2292C27.6486 22.595 27.9462 22.8926 28.3116 22.8926C28.4894 22.8926 28.6558 22.8236 28.7806 22.699C28.906 22.5736 28.9745 22.4068 28.9745 22.2292L28.9748 14.4548C28.9748 11.8621 27.0556 9.75226 24.6965 9.75226L24.6965 9.75218Z" fill="#1A1A1A"/>
<path id="Vector_2" d="M13.529 29.0481L18.9888 25.7728C19.647 25.3775 20.494 25.5455 20.9162 26.1554C21.0703 26.3776 21.149 26.6365 21.1612 26.9002C21.3648 26.7939 21.5862 26.7362 21.8117 26.7362C21.9271 26.7362 22.043 26.7506 22.1575 26.7791C22.5244 26.8707 22.8335 27.0999 23.0279 27.4241C23.2225 27.7488 23.2792 28.1292 23.1876 28.4956C23.103 28.8347 22.8969 29.12 22.6101 29.3158C22.8106 29.434 22.9836 29.5954 23.1065 29.8009C23.3012 30.1255 23.3579 30.5058 23.2665 30.8726C23.1749 31.239 22.9456 31.5481 22.621 31.7429L22.6191 31.7441C22.8161 31.8622 22.9859 32.0219 23.1075 32.2243C23.3023 32.5489 23.3591 32.9294 23.2675 33.2962C23.1756 33.6628 22.9463 33.9719 22.6222 34.1665L15.9558 38.1658C14.7116 38.912 13.2732 39.1695 11.9063 38.8903C10.5271 38.6085 9.38491 37.8158 8.6904 36.658C7.59132 34.8262 7.75603 32.662 9.11943 31.0102C9.18186 30.9348 9.24335 30.858 9.29919 30.7784C9.35833 30.6943 9.42736 30.5953 9.45091 30.5614C9.59203 30.3093 11.8948 26.1604 11.8946 26.1609C12.1271 25.7413 12.5629 25.5038 13.0125 25.504C13.2221 25.504 13.4349 25.5556 13.6312 25.6645C13.8682 25.7969 14.0672 25.9898 14.2065 26.2224C14.4927 26.6995 14.5029 27.2965 14.2333 27.7797L13.529 29.0481ZM13.5618 26.6092C13.4888 26.4874 13.3884 26.3903 13.2656 26.3215C13.0119 26.1811 12.6924 26.2725 12.5527 26.5253C10.905 29.4938 10.3433 30.5055 10.1265 30.8655L10.1315 30.8667C10.1133 30.927 10.1133 30.927 9.91496 31.2104C9.84758 31.3063 9.77431 31.3984 9.69962 31.4891C8.52726 32.9095 8.39113 34.697 9.33515 36.271C9.91991 37.2459 10.8863 37.9143 12.0565 38.1532C13.2395 38.3938 14.4862 38.1699 15.5684 37.5207L22.2354 33.5212C22.3876 33.43 22.495 33.2851 22.5379 33.1134C22.5808 32.9418 22.5542 32.7635 22.4627 32.6113C22.2747 32.298 21.8664 32.195 21.5531 32.3837L18.2642 34.3569C18.0861 34.4638 17.8547 34.4063 17.748 34.228C17.641 34.0499 17.6987 33.8187 17.8768 33.7118L21.166 31.7386L22.2342 31.0978C22.3864 31.0064 22.4941 30.8615 22.537 30.6902C22.5798 30.5185 22.5532 30.3399 22.4618 30.1879C22.2736 29.8744 21.8653 29.7723 21.5522 29.9604L17.1948 32.5743C17.0162 32.6815 16.7856 32.6236 16.6786 32.4455C16.5716 32.2673 16.6296 32.0362 16.8075 31.9293L22.1553 28.7211C22.3075 28.6297 22.4149 28.4851 22.4578 28.3133C22.5007 28.1418 22.4741 27.9635 22.3829 27.8113C22.2917 27.6593 22.1468 27.5519 21.9751 27.509C21.8024 27.4661 21.6247 27.4927 21.473 27.5837L20.483 28.1776C20.4828 28.1776 20.4828 28.1779 20.4826 28.1779H20.4823L16.1252 30.7918C15.9466 30.8993 15.7157 30.8413 15.609 30.663C15.502 30.4849 15.56 30.2537 15.7379 30.1468L20.0952 27.5328C20.2474 27.4414 20.3551 27.2965 20.398 27.1252C20.4451 26.9372 20.4093 26.745 20.2976 26.5838C20.104 26.3037 19.6898 26.2292 19.3757 26.4179L12.7136 30.4147C12.5677 30.5018 12.3809 30.4806 12.2586 30.3626C12.1361 30.2443 12.1085 30.0584 12.191 29.9098L13.5763 27.4138C13.7153 27.1643 13.7099 26.8562 13.5617 26.6093L13.5618 26.6092Z" fill="#1A1A1A"/>
<path id="Vector_3" d="M39.618 36.6577C38.9237 37.8157 37.7818 38.6083 36.4024 38.8901C35.0352 39.1688 33.5974 38.9117 32.3529 38.1656L25.6859 34.1661C25.3615 33.9715 25.132 33.6624 25.0401 33.2953C24.949 32.9289 25.006 32.5484 25.2003 32.2243C25.3217 32.0216 25.4918 31.8619 25.689 31.7439L25.6871 31.7427C25.3627 31.5481 25.1332 31.239 25.0418 30.8724C24.9499 30.5058 25.0069 30.125 25.2015 29.8004C25.3269 29.5919 25.4986 29.4289 25.6946 29.3132C25.41 29.1174 25.2051 28.8331 25.1207 28.4957C25.0288 28.1288 25.0859 27.7483 25.2805 27.4242C25.4748 27.0997 25.7842 26.8705 26.1508 26.7789C26.2653 26.7501 26.3814 26.736 26.4964 26.736C26.7221 26.7362 26.9436 26.7935 27.1471 26.9C27.1596 26.6363 27.2381 26.3774 27.3921 26.1552C27.8146 25.5458 28.6608 25.3771 29.32 25.7726L34.7796 29.0474L34.0758 27.7799C33.8059 27.296 33.8157 26.699 34.102 26.2216C34.2415 25.9893 34.4408 25.7964 34.679 25.6628C34.8748 25.5544 35.0868 25.5031 35.296 25.5031C35.7453 25.5033 36.1816 25.7403 36.4139 26.1599C37.2234 27.6185 38.751 30.3694 38.8584 30.5614C38.8813 30.5946 38.9503 30.6936 39.0094 30.7777C39.0658 30.8575 39.1265 30.9339 39.1894 31.0097C40.5526 32.6622 40.7171 34.8262 39.618 36.6578L39.618 36.6577ZM38.609 31.4892C38.5341 31.3985 38.4606 31.3059 38.3937 31.2105C38.1901 30.9217 38.1849 30.9141 38.1696 30.8385C37.9317 30.4448 37.3512 29.3997 35.7555 26.5249C35.6155 26.2726 35.2975 26.1805 35.0442 26.3204C34.9196 26.3901 34.8194 26.4874 34.7464 26.6093C34.5984 26.8559 34.5928 27.1641 34.7325 27.4143L36.1173 29.9095C36.2 30.0584 36.1725 30.2441 36.0502 30.3623C35.9282 30.4808 35.7416 30.5016 35.595 30.4144L28.9328 26.4177C28.6188 26.2295 28.2049 26.3032 28.0107 26.5836C27.899 26.7447 27.8635 26.937 27.9101 27.1247C27.953 27.2963 28.0607 27.4409 28.2131 27.5323C28.2136 27.5326 28.2138 27.533 28.2143 27.5333L32.5703 30.1465C32.7484 30.2535 32.8061 30.4844 32.6991 30.6627C32.5922 30.8406 32.3615 30.8988 32.1829 30.7916L26.8351 27.5835C26.6834 27.4925 26.5048 27.4657 26.3333 27.5088C26.1613 27.5517 26.0166 27.6591 25.9255 27.8115C25.834 27.9635 25.8077 28.1418 25.8501 28.3133C25.8929 28.4849 26.0006 28.6297 26.1528 28.7212L27.1934 29.3453L31.5004 31.9293C31.6785 32.0363 31.7362 32.2672 31.6293 32.4455C31.5223 32.6234 31.2917 32.6814 31.1131 32.5744L26.7562 29.9604C26.4428 29.7719 26.0348 29.8742 25.8463 30.188C25.7549 30.3402 25.7285 30.5186 25.7709 30.6901C25.8138 30.8616 25.9215 31.0062 26.0739 31.0979L27.1421 31.7387L30.4308 33.7119C30.6089 33.8188 30.6666 34.0497 30.5597 34.2281C30.4527 34.4059 30.222 34.4644 30.0435 34.3569L26.7548 32.3838C26.603 32.2928 26.4252 32.266 26.2527 32.3091C26.0812 32.352 25.9361 32.4594 25.8449 32.6114C25.7537 32.7636 25.7271 32.9421 25.7695 33.1134C25.8124 33.2849 25.92 33.4296 26.0725 33.5212L32.7395 37.5207C33.8214 38.1698 35.0691 38.3945 36.2513 38.1533C37.4213 37.9144 38.3877 37.246 38.9725 36.2711C39.9175 34.6968 39.7815 32.9091 38.6094 31.4892L38.609 31.4892Z" fill="#1A1A1A"/>
</g>
</g>
</svg>
