<svg version="1.1" id="Layer_1" xmlns="http://www.w3.org/2000/svg" xmlns:xlink="http://www.w3.org/1999/xlink" x="0px" y="0px"
	 width="100%" viewBox="0 0 2003 403" enable-background="new 0 0 2003 403" xml:space="preserve">
<path fill="#FF2E00" opacity="1.000000" stroke="none" 
	d="
M391.531342,1.000000 
	C400.694122,4.876838 404.110992,11.564970 404.091064,21.056444 
	C403.929077,98.205818 404.112122,175.356064 403.852356,252.504898 
	C403.821289,261.730194 411.178619,269.188141 420.639954,269.154755 
	C498.288605,268.880493 575.938782,269.063080 653.588135,268.923370 
	C663.760315,268.905090 672.355042,275.972015 672.179077,287.421997 
	C671.672058,320.406952 671.922729,353.405060 672.054626,386.397278 
	C672.087341,394.588287 668.602783,400.102966 661.104614,403.662720 
	C622.312439,404.000000 583.624878,404.000000 544.468628,404.000000 
	C532.718323,400.878845 524.210571,393.758087 516.129700,385.603088 
	C483.908142,353.085815 451.458588,320.794342 419.066437,288.446350 
	C416.420258,285.803772 413.994446,282.105347 409.409973,283.923035 
	C404.632385,285.817200 405.313263,290.247498 405.311554,294.213593 
	C405.298279,324.676910 405.286957,355.140259 405.323486,385.603516 
	C405.329468,390.570099 404.585175,395.210815 401.162323,399.093445 
	C399.125671,401.403687 396.850464,403.251160 393.318695,403.772034 
	C354.312439,404.000000 315.624878,404.000000 276.468658,404.000000 
	C265.375763,400.771698 257.006073,394.335175 249.218552,386.525787 
	C171.285233,308.374207 93.210197,230.363876 15.137944,152.350922 
	C8.641811,145.859726 3.841207,138.455658 1.219889,129.278137 
	C1.000000,89.645775 1.000000,50.291542 1.000000,10.468657 
	C2.759701,6.505458 5.011801,3.440078 8.735842,1.213686 
	C46.687561,1.000000 84.375122,1.000000 122.531342,1.000000 
	C133.691498,3.605246 137.442749,8.641103 137.451965,20.862875 
	C137.494125,76.862175 137.467529,132.861511 137.470474,188.860840 
	C137.471558,209.693924 137.440262,230.527054 137.483673,251.360046 
	C137.506699,262.415680 142.593628,267.507355 153.758621,267.512207 
	C229.091049,267.545013 304.423462,267.532135 379.755890,267.524994 
	C381.255310,267.524841 382.764435,267.578094 384.244293,267.299988 
	C389.307800,266.348450 391.022095,262.227142 388.075500,258.012787 
	C386.733307,256.093170 384.954468,254.549683 383.306122,252.900925 
	C350.312286,219.898880 317.399841,186.814804 284.267700,153.952209 
	C272.863129,142.640427 267.174469,129.552170 267.401398,113.297905 
	C267.843445,81.637741 267.545013,49.967117 267.519470,18.300869 
	C267.513062,10.346299 270.563568,4.466056 278.621796,1.236006 
	C316.354218,1.000000 353.708466,1.000000 391.531342,1.000000 
z"/>
<path fill="#000B07" opacity="1.000000" stroke="none" 
	d="
M2004.000000,215.750000 
	C2001.457031,219.007874 2002.769043,222.869446 2002.329346,226.168381 
	C2001.063843,235.663162 1998.821289,244.863754 1995.902710,253.878159 
	C1990.270874,271.272247 1981.300049,286.761261 1969.102539,300.536346 
	C1949.938721,322.178467 1925.762329,335.403320 1898.648560,343.980133 
	C1885.023315,348.290192 1871.044556,350.745880 1856.811523,352.037323 
	C1829.181641,354.544250 1801.490845,353.949554 1773.811035,353.991211 
	C1746.982910,354.031616 1720.154785,353.965149 1693.326904,354.054169 
	C1690.656250,354.063019 1688.747314,353.363861 1686.837280,351.430176 
	C1673.489502,337.917023 1660.019897,324.524231 1646.585083,311.097198 
	C1642.869751,307.383972 1640.925171,303.131531 1640.931885,297.658630 
	C1641.030396,216.841309 1641.045044,136.023743 1640.879883,55.206631 
	C1640.870728,50.707943 1642.054077,49.887936 1646.308960,49.897457 
	C1711.962402,50.044380 1777.617432,49.778725 1843.269165,50.150921 
	C1860.321411,50.247601 1877.162231,53.377342 1893.669312,57.978100 
	C1911.935669,63.069160 1929.169922,70.536926 1944.675659,81.382324 
	C1970.372681,99.355835 1988.012695,123.409668 1997.020264,153.618637 
	C2000.272949,164.526978 2003.032715,175.503815 2003.025635,187.441223 
	C2002.310303,194.930008 2002.324097,201.988770 2002.475830,209.051636 
	C2002.514893,210.875137 2002.799072,212.647781 2003.741943,214.673126 
	C2004.000000,215.000000 2004.000000,215.500000 2004.000000,215.750000 
z"/>
<path fill="#FFFFFF" opacity="1.000000" stroke="none" 
	d="
M278.531342,1.000000 
	C278.695099,2.022319 277.868011,2.457850 277.035858,3.033640 
	C271.922211,6.571927 268.865112,10.990527 268.906616,17.731205 
	C269.111725,51.052094 269.018097,84.374939 268.990692,117.697067 
	C268.980347,130.252838 273.618042,140.981659 282.324371,149.739792 
	C317.445038,185.069458 352.727142,220.238647 387.955719,255.461014 
	C390.248810,257.753632 392.454041,259.827332 391.118225,263.738251 
	C389.594604,268.198914 386.525635,269.044067 382.363281,269.041046 
	C305.555756,268.985016 228.748215,269.001770 151.940659,268.997833 
	C141.921127,268.997314 136.000107,262.976593 136.000092,252.826218 
	C135.999939,174.852386 136.001740,96.878571 135.997742,18.904747 
	C135.997253,9.485103 132.018814,4.139690 123.120628,1.349970 
	C174.687561,1.000000 226.375122,1.000000 278.531342,1.000000 
z"/>
<path fill="#FFFFFF" opacity="1.000000" stroke="none" 
	d="
M1.000000,129.468658 
	C3.880611,131.370987 4.300749,135.099197 5.949979,138.145020 
	C8.384483,142.641068 11.231207,146.745438 14.846442,150.359741 
	C90.608742,226.102570 166.384888,301.831604 242.079285,377.642212 
	C252.178436,387.756927 261.809021,398.352570 275.898254,403.648010 
	C185.738541,404.000000 95.477051,403.970795 5.215796,404.104492 
	C1.526525,404.109955 0.904473,403.241852 0.908989,399.722290 
	C1.024379,309.794067 1.000000,219.865677 1.000000,129.468658 
z"/>
<path fill="#FFFFFF" opacity="1.000000" stroke="none" 
	d="
M393.468658,404.000000 
	C401.646362,399.428192 404.322571,392.284546 404.173859,382.601471 
	C403.703156,351.948181 404.097107,321.282501 403.885681,290.623474 
	C403.856964,286.463348 405.570526,283.651672 408.736298,282.311096 
	C411.790924,281.017578 414.800201,282.150513 417.535950,284.907410 
	C447.699951,315.304840 478.025146,345.542358 508.317535,375.812347 
	C519.010254,386.497192 528.830139,398.327332 543.991455,403.605164 
	C493.979095,404.000000 443.958221,404.000000 393.468658,404.000000 
z"/>
<path fill="#000B07" opacity="1.000000" stroke="none" 
	d="
M2004.000000,214.531342 
	C2001.682251,214.864502 2001.438232,212.728790 2001.393921,211.396912 
	C2001.140015,203.775330 1999.643433,196.044495 2002.892090,188.253082 
	C2003.047607,187.891312 2003.519531,187.982910 2003.759766,187.991455 
	C2004.000000,196.687561 2004.000000,205.375137 2004.000000,214.531342 
z"/>
<path fill="#FFFFFF" opacity="1.000000" stroke="none" 
	d="
M8.505266,1.000000 
	C6.558950,3.940676 4.117900,6.881352 1.338425,9.911015 
	C1.000000,9.353109 1.000000,8.706220 1.000000,8.059329 
	C1.000002,1.000000 1.000002,1.000000 8.505266,1.000000 
z"/>
<path fill="#000B07" opacity="1.000000" stroke="none" 
	d="
M1516.304932,332.269836 
	C1497.592163,342.280670 1477.769531,347.705597 1457.343506,350.878510 
	C1447.131348,352.464783 1436.747437,352.746765 1426.371704,353.157166 
	C1378.793335,355.039093 1331.207886,353.370392 1283.633545,354.060852 
	C1280.093018,354.112213 1277.529907,353.255341 1274.958618,350.624237 
	C1261.682739,337.039978 1248.206543,323.650360 1234.724487,310.269348 
	C1231.524780,307.093536 1229.992432,303.407745 1229.992920,298.955505 
	C1230.002563,217.303925 1230.020630,135.652328 1229.924927,54.000866 
	C1229.921021,50.728767 1230.769897,49.921463 1234.015015,49.926212 
	C1301.002563,50.024258 1367.992554,49.690269 1434.975952,50.226135 
	C1450.956421,50.353973 1466.848511,53.529911 1482.388184,57.930328 
	C1500.477173,63.052670 1517.561157,70.309120 1532.998169,81.044052 
	C1561.422363,100.810249 1579.809937,127.507347 1588.076172,161.260498 
	C1591.887695,176.823792 1593.606567,192.561111 1592.909302,208.464493 
	C1591.580933,238.760284 1583.924438,267.282166 1565.461182,291.833130 
	C1552.522461,309.037750 1536.367920,322.856598 1516.304932,332.269836 
z"/>
<path fill="#000B07" opacity="1.000000" stroke="none" 
	d="
M769.000000,74.000015 
	C769.000061,66.669518 769.100159,59.836742 768.946167,53.009705 
	C768.891968,50.605843 769.605042,49.935764 772.006592,49.947952 
	C790.665100,50.042637 809.324463,50.041771 827.983032,49.948734 
	C830.369263,49.936836 831.352478,50.580276 831.021973,53.001095 
	C830.888000,53.982376 831.000000,54.997246 831.000000,55.996834 
	C831.000000,131.299103 831.098267,206.601669 830.875671,281.903290 
	C830.847900,291.304016 838.636108,299.144897 847.986328,299.117767 
	C921.288757,298.905243 994.592224,299.034119 1067.895142,298.906799 
	C1071.871826,298.899902 1073.214355,299.564178 1073.122314,303.910950 
	C1072.804565,318.898010 1072.920654,333.896759 1073.065796,348.889160 
	C1073.095459,351.958313 1072.554199,353.090637 1069.096191,353.085999 
	C986.630371,352.975372 904.164307,352.992401 821.698303,353.024963 
	C818.009888,353.026428 815.089050,351.522858 812.604370,349.048492 
	C799.384216,335.883179 786.200684,322.681091 773.012268,309.484009 
	C770.096741,306.566681 768.941772,303.100952 768.945984,298.907837 
	C769.020325,224.105286 769.000000,149.302643 769.000000,74.000015 
z"/>
<path fill="#000B07" opacity="1.000000" stroke="none" 
	d="
M1183.000000,268.000000 
	C1183.000000,294.657776 1182.838623,320.817383 1183.139160,346.971710 
	C1183.197510,352.054077 1181.110474,353.916504 1176.800903,353.948883 
	C1160.307495,354.072754 1143.812256,354.046265 1127.318237,353.967987 
	C1122.852783,353.946808 1120.913208,351.775238 1120.918579,346.964508 
	C1121.027466,249.997620 1121.018921,153.030563 1120.939819,56.063610 
	C1120.936157,51.567383 1122.517822,49.891335 1127.039062,49.935066 
	C1143.865112,50.097813 1160.696045,50.152454 1177.519775,49.898056 
	C1182.000122,49.830311 1183.096069,51.241367 1183.088379,55.572186 
	C1182.963745,126.214622 1183.000000,196.857346 1183.000000,268.000000 
z"/>
<path fill="#FFFFFF" opacity="1.000000" stroke="none" 
	d="
M1790.000000,299.000000 
	C1766.680420,299.000000 1743.859497,299.156342 1721.041992,298.939728 
	C1707.928589,298.815308 1703.156372,291.702667 1703.113525,281.257263 
	C1702.876587,223.459854 1703.020508,165.660934 1702.939697,107.862679 
	C1702.935669,104.977654 1703.370117,103.902740 1706.650513,103.914085 
	C1745.293457,104.047859 1783.942139,103.622932 1822.577881,104.164764 
	C1840.926147,104.422073 1859.366211,106.246750 1876.900757,112.136581 
	C1900.734009,120.142197 1920.492798,133.695709 1931.573120,157.231216 
	C1937.057007,168.879562 1939.349243,181.314865 1940.212891,194.273788 
	C1941.213257,209.284744 1939.550537,223.782822 1934.881348,237.866318 
	C1928.906616,255.887238 1917.417725,269.930939 1901.299683,279.914551 
	C1887.178345,288.661377 1871.529053,293.194855 1855.224854,296.093964 
	C1833.736572,299.914856 1812.104370,298.753784 1790.000000,299.000000 
z"/>
<path fill="#FFFFFF" opacity="1.000000" stroke="none" 
	d="
M1458.945312,293.000549 
	C1448.980225,295.729523 1439.233887,297.401703 1429.349609,297.963165 
	C1389.633789,300.219360 1349.877930,298.486298 1310.142822,298.977386 
	C1298.811523,299.117432 1292.001465,292.190399 1292.000977,280.857849 
	C1291.998779,223.548340 1292.056030,166.238663 1291.886963,108.929665 
	C1291.874390,104.635788 1293.067871,103.878395 1297.084473,103.900879 
	C1328.903442,104.079002 1360.725830,104.188118 1392.543335,103.902130 
	C1404.326416,103.796211 1416.084229,104.307770 1427.776733,105.161346 
	C1450.333496,106.808044 1472.254150,111.674530 1491.494385,124.269852 
	C1510.523438,136.727005 1522.204834,154.459061 1527.112427,176.808716 
	C1528.878052,184.850006 1529.871094,193.079208 1529.714233,201.033768 
	C1529.264282,223.856277 1524.640381,245.516937 1509.001587,263.708496 
	C1496.457520,278.300293 1480.417847,286.447845 1462.583252,291.994873 
	C1461.511475,292.328247 1460.440308,292.663544 1458.945312,293.000549 
z"/>
</svg>